PathFileType	4	(X/Y/Z)	RBDS04\RBDS04runT25.trc
DataRate	CameraRate	NumFrames	NumMarkers	Units	OrigDataRate	OrigDataStartFrame	OrigNumFrames
150.000000	150.000000	6	33	mm	150.000000	2812	4500
Frame#	Time	L.ASIS			L.Heel.Bottom			L.Heel.Lateral			L.Heel.Top			L.Iliac.Crest			L.MT1			L.MT5			L.PSIS			L.Shank.Bottom.Lateral			L.Shank.Bottom.Medial			L.Shank.Top.Lateral			L.Shank.Top.Medial			L.Thigh.Bottom.Lateral			L.Thigh.Bottom.Medial			L.Thigh.Top.Lateral			L.Thigh.Top.Medial			R.ASIS			R.ASY			R.Heel.Bottom			R.Heel.Lateral			R.Heel.Top			R.Iliac.Crest			R.MT1			R.MT5			R.PSIS			R.Shank.Bottom.Lateral			R.Shank.Bottom.Medial			R.Shank.Top.Lateral			R.Shank.Top.Medial			R.Thigh.Bottom.Lateral			R.Thigh.Bottom.Medial			R.Thigh.Top.Lateral			R.Thigh.Top.Medial			
		X1	Y1	Z1	X2	Y2	Z2	X3	Y3	Z3	X4	Y4	Z4	X5	Y5	Z5	X6	Y6	Z6	X7	Y7	Z7	X8	Y8	Z8	X9	Y9	Z9	X10	Y10	Z10	X11	Y11	Z11	X12	Y12	Z12	X13	Y13	Z13	X14	Y14	Z14	X15	Y15	Z15	X16	Y16	Z16	X17	Y17	Z17	X18	Y18	Z18	X19	Y19	Z19	X20	Y20	Z20	X21	Y21	Z21	X22	Y22	Z22	X23	Y23	Z23	X24	Y24	Z24	X25	Y25	Z25	X26	Y26	Z26	X27	Y27	Z27	X28	Y28	Z28	X29	Y29	Z29	X30	Y30	Z30	X31	Y31	Z31	X32	Y32	Z32	X33	Y33	Z33	

2813	18.74666666666667	2173.57415488719	988.9299912635012	897.1545001737446	1602.523768732933	308.5920818613702	945.79108035295	1625.274060873923	281.6303347289686	902.9965052135141	1649.144340198512	313.8077122660388	941.0297738007785	2130.195631949909	1070.497229282411	859.8290807765152	1694.292873854128	114.828859189047	984.1890473996114	1659.834707635433	132.4989815047221	888.6599270169959	2016.657325242404	1039.615752288774	952.931684982158	1742.439450571111	316.4519220425698	885.8873312970316	1713.075791427864	346.5380593160942	914.217546099707	1796.958607657256	375.2198137377281	872.9814793189489	1769.383482179826	409.1780194168032	903.4407747911374	2032.06943329602	634.637040526918	845.1269595005328	1967.538974680581	646.9456604186619	877.3902732508923	2040.141708454785	743.1480521682784	826.0279523927827	1979.536956754738	754.9887817804212	857.328185240095	2171.530146923325	992.012093069765	1087.507190157498	2365.648334200011	141.4261756132595	1057.56560085618	2212.458729559053	47.01273895149094	1044.128491937011	2243.57531727546	62.67918697094731	1085.762636935124	2209.976781666602	92.01855687881101	1053.461215094534	2116.234523263353	1057.687900645647	1131.822590100628	2411.842123542042	121.9270450316386	1010.488135827123	2395.310723469012	84.95816053899894	1101.509960108497	2013.819948881648	1038.765441834747	1039.975128149226	2237.105495725186	202.371489463506	1108.857028741701	2200.586148025602	201.2912423897559	1067.999855737261	2212.663482165683	277.9835877693123	1125.405952548824	2178.224134715614	276.6930571233366	1083.45452393878	2168.326947217978	624.8857515155801	1150.953388479081	2116.874548560937	610.0857546656466	1100.420429953053	2124.28579967216	725.6807012466654	1164.812871878867	2072.722565459756	710.0593182004769	1119.463841248737	
2814	18.75333333333333	2174.156556481639	986.4209327785819	897.8436292159404	1601.275302646448	317.0095932532471	945.3741475307033	1623.103395319788	289.587455791599	902.3850347062979	1647.985855945309	321.1034208775412	940.4138373448862	2130.022801378977	1067.78279906543	859.9003651253464	1689.512308394839	121.2968604930834	982.7751568296255	1654.507993103836	139.7827274299775	887.5684172821543	2016.914866214263	1036.416780089605	952.7951905615087	1742.088538452512	320.8008947883362	885.21621835642	1713.819405756985	352.0101246517405	913.5238154262028	1798.729073757333	377.5301789955114	872.4957373077225	1772.43073936863	412.570620792978	902.9540666249115	2037.725262299302	630.2624162408234	845.2111993207662	1972.919097441282	641.4882565954219	877.3477917597469	2044.126214519458	738.9286576178592	826.3355972757236	1983.218471310671	749.7313598264903	857.4512182454409	2171.583790898766	989.8089751801162	1088.319943336186	2365.073186636323	138.1180593458746	1057.66065913568	2211.940962660714	44.4316513469708	1042.409435148194	2242.818146235672	59.43575123787599	1084.400302313014	2209.534847361871	89.30873872915971	1052.375118670509	2115.93335483575	1055.356399110527	1132.024676920578	2411.313075876913	119.0985243407643	1010.351530393687	2394.445007149298	81.05431540004669	1100.810511465389	2013.826286336134	1035.655410297478	1039.93744452841	2236.280997432236	199.3007822188654	1108.422119204203	2200.046241304305	198.2487212420783	1067.312771954332	2211.727531002872	274.8911262715815	1124.964617473388	2177.597950943225	273.6343210069403	1082.746776169408	2168.182741002743	622.2524077997303	1150.790466718731	2116.575089417196	607.4682653463587	1100.562430775133	2124.259931195867	723.106698320915	1164.752730537994	2072.569030954885	707.5241622582422	1119.661011442904	
2815	18.76	2174.705393453134	983.4227089518388	898.5706920387782	1600.802401042694	325.1915857040264	944.8207031542975	1621.84459818981	297.4291198193384	901.6717941016997	1647.575345806314	328.26530190029	939.7700905415417	2129.895913979713	1064.498855822946	859.9298057029835	1685.66814219923	127.7375463708295	981.2898226825218	1650.325995198074	147.1073233992985	886.3225711144473	2017.097728133533	1032.574819672177	952.6232457814363	1742.485292981013	324.9749694356163	884.5302550121048	1715.363018626157	357.2761232374953	912.8203441092426	1801.207963469468	379.5788479011626	871.9843280792576	1776.194012546172	415.6414097005701	902.4379320867558	2043.569996565129	625.4019379010443	845.2557323452583	1978.596012498961	635.4946485432804	877.4526272892609	2048.178725991722	734.2114122945518	826.6296146577137	1987.084399341297	743.9293598128409	857.7385895776828	2171.573137396284	987.2105504244352	1089.216529967585	2362.676632518655	133.5444558358541	1057.719603643234	2208.899141000853	41.9807963763574	1040.45691248231	2239.514563559357	56.16535842085206	1082.869512198927	2206.971694921716	86.73886266891093	1050.916716278555	2115.472447704261	1052.612472518584	1132.261259264801	2408.864123909454	114.4488521796171	1010.395574210367	2391.108868120924	75.93318519223068	1100.372361466811	2013.743463497715	1031.93283502322	1039.845258298674	2234.109869303354	195.6999944416717	1107.843966719317	2198.147821428973	194.9209315069199	1066.519891231724	2209.928376014526	271.4130019100995	1124.429081039641	2176.104511797886	270.4107962087656	1081.950055508913	2168.577109868712	619.3100270222002	1150.422844226878	2116.65956815131	604.3534573225728	1100.721177169036	2124.604811989796	720.1552744167137	1164.498717286789	2072.667183783643	704.4230840202731	1119.875572743322	
2816	18.76666666666667	2175.21489433616	979.9356869416289	899.3252570477949	1601.207972845075	333.1275015279455	944.1238495484704	1621.593356924719	305.1209705121923	900.8459390122928	1648.024418407441	335.2673606039839	939.0813795594332	2129.812755244317	1060.653377473439	859.9273895753337	1682.723973107105	134.0780157005657	979.73898266708	1647.289850757668	154.4000382380065	884.9314828579177	2017.192318358092	1028.089235776569	952.4413828490885	1743.672452384862	328.935769192192	883.8233842058586	1717.736720808662	362.2788603946897	912.1034022964039	1804.410027114414	381.3497932581092	871.4392610032421	1780.688531630333	418.3512376300533	901.8966528744651	2049.551658876022	620.0961060700592	845.2477794228001	1984.522065516135	629.0238627250206	877.6902421298921	2052.273604361257	729.0282561825595	826.8915605477054	1991.108698433043	737.6318000118256	858.1643659673992	2171.508097664139	984.1753552098374	1090.173911982074	2358.523445472402	127.928564662074	1057.564082478125	2203.470966995126	39.64137068872019	1038.367685055846	2233.834409828482	52.960781797672	1081.21125286327	2202.37760817321	84.30313813343763	1049.102820449457	2114.903149380068	1049.392691614549	1132.550532768554	2404.562646256778	108.211790522275	1010.45537372866	2385.477968796302	69.95181567288351	1100.115745132055	2013.56927989618	1027.601352915169	1039.717414664053	2230.706267449916	191.5873242128191	1107.070030839163	2194.953583604354	191.32335932842	1065.616326838888	2207.364875633501	267.5448474909727	1123.780303146437	2173.797417006395	267.0173279970339	1081.086186345364	2169.425520666343	616.0088397225974	1149.915579642495	2117.07395034744	600.7264702090675	1100.900708247362	2125.254937250792	716.7828325837329	1164.117209003132	2072.975170646176	700.7425047843931	1120.115908961875	
2817	18.77333333333333	2175.678423446457	975.9661613823827	900.0989891431618	1602.575801605399	340.7945904110062	943.2910539789049	1622.416797871306	312.6146829878916	899.9057453371213	1649.423042773509	342.0697139307455	938.337402932363	2129.757568368599	1056.254959444933	859.9029867764567	1680.639379802545	140.2454231338405	978.1278308438807	1645.378797955524	161.5840320224056	883.4079799387736	2017.178061795198	1022.976063412147	952.2807893629683	1745.681623314439	332.6424340725547	883.0905481062275	1720.958821617044	366.9627802710875	911.3682740991792	1808.338578339491	382.8262336358959	870.8522677681996	1785.922616182171	420.665517213704	901.3335310555315	2055.629315233639	614.3908053587568	845.1754441454547	1990.65044559527	622.1351061615436	878.0302285465607	2056.393907932214	723.4179052704948	827.1066835694324	1995.264210593376	730.8902524072308	858.6918068589453	2171.38799918489	980.6720483648982	1091.166065151632	2352.674216037974	121.5816717720312	1057.018736531809	2195.838146283163	37.42425429198268	1036.236836403069	2225.989982683496	49.94741756937311	1079.463357232608	2195.866542014484	82.02145953484876	1046.962131684275	2114.273585145267	1045.634583820279	1132.914476664762	2398.479129805046	100.7496827606211	1010.364103632404	2377.756211884777	63.55038321302949	1099.940893850152	2013.293271576491	1022.687604208567	1039.576137867949	2226.188579574142	187.0468473010668	1106.039863020448	2190.535847091338	187.5341941880074	1064.585190317491	2204.137169420982	263.3392636262315	1122.985872539674	2170.737396311369	263.503452114902	1080.162704338821	2170.628005862493	612.3255666123385	1149.340501796497	2117.761434298697	596.6056076276818	1101.101612896424	2126.129857754697	712.9696675394765	1163.684758138408	2073.445281779331	696.4999826838944	1120.391311734233	
2818	18.78	2176.087037332833	971.529999119123	900.8861855824139	1604.963911876144	348.1582712542214	942.3405021454798	1624.350821537026	319.8507297331878	898.8570628025855	1651.833008500487	348.6208699466684	937.5353765690809	2129.703168352577	1051.314065274231	859.8653736086648	1679.382051894414	146.1697925230438	976.4613739434218	1644.561575155133	168.5806482637546	881.767276982711	2017.028649283963	1017.274119323148	952.1741077139291	1748.532903766509	336.0551509817424	882.328817673364	1725.035889871839	371.2782912794012	910.6094879129021	1812.987067714701	383.9938256423466	870.2163030384568	1791.895786932156	422.5586947169313	900.7497117848262	2061.774098304127	608.3416705090701	845.0293230994234	1996.936847497346	614.890837807319	878.4287643410223	2060.530594226094	717.4304607005205	827.2660116565216	1999.523449327102	723.7622555368882	859.2777429620759	2171.199489768278	976.6891337050124	1092.16591614495	2345.19070718492	114.8701865836292	1055.937923962707	2186.218411363216	35.36350978774054	1034.148320400929	2216.22386100895	47.26212252927321	1077.658945587414	2187.573165307979	79.9326265982783	1044.536247849107	2113.621008806963	1041.288543032884	1133.376559451781	2390.694157720502	92.51965490850348	1009.977723981063	2368.167176665473	57.19848848436063	1099.742446408729	2012.896752136456	1017.246057438006	1039.443508511602	2220.671571370266	182.2218954102021	1104.695695823173	2184.975182663066	183.6871615612692	1063.402566009823	2200.338529258145	258.9026966919233	1122.005984229986	2166.988849054881	259.9696455400874	1079.174314837446	2172.074751557681	608.2706174125049	1148.765669788349	2118.663675855948	592.0459592363661	1101.316478889299	2127.137438272437	708.7272098926269	1163.276466582122	2074.024509146311	691.7481026636358	1120.706871127075	
